<mxfile host="app.diagrams.net" agent="Mozilla/5.0 (Windows NT 10.0; Win64; x64) AppleWebKit/537.36 (KHTML, like Gecko) Chrome/135.0.0.0 Safari/537.36" version="26.2.12">
  <diagram name="Page-1" id="bkhj7TyTQltoUjwlAiIB">
    <mxGraphModel dx="632" dy="415" grid="1" gridSize="10" guides="1" tooltips="1" connect="1" arrows="1" fold="1" page="1" pageScale="1" pageWidth="827" pageHeight="1169" math="0" shadow="0">
      <root>
        <mxCell id="0" />
        <mxCell id="1" parent="0" />
        <mxCell id="wifZ-9k00RwjJwxD-yln-15" style="edgeStyle=orthogonalEdgeStyle;rounded=0;orthogonalLoop=1;jettySize=auto;html=1;" parent="1" source="wifZ-9k00RwjJwxD-yln-1" edge="1">
          <mxGeometry relative="1" as="geometry">
            <mxPoint x="200" y="110" as="targetPoint" />
          </mxGeometry>
        </mxCell>
        <mxCell id="wifZ-9k00RwjJwxD-yln-1" value="Visiteur" style="shape=umlActor;verticalLabelPosition=bottom;verticalAlign=top;html=1;outlineConnect=0;" parent="1" vertex="1">
          <mxGeometry x="20" y="80" width="30" height="60" as="geometry" />
        </mxCell>
        <mxCell id="wifZ-9k00RwjJwxD-yln-2" value="Application web" style="text;html=1;align=center;verticalAlign=middle;whiteSpace=wrap;rounded=0;glass=0;shadow=0;fillColor=#fff2cc;strokeColor=#d6b656;" parent="1" vertex="1">
          <mxGeometry width="90" height="30" as="geometry" />
        </mxCell>
        <mxCell id="wifZ-9k00RwjJwxD-yln-5" value="Créer un compte" style="text;html=1;align=center;verticalAlign=middle;whiteSpace=wrap;rounded=0;fontStyle=4" parent="1" vertex="1">
          <mxGeometry y="30" width="110" height="30" as="geometry" />
        </mxCell>
        <mxCell id="wifZ-9k00RwjJwxD-yln-8" value="" style="endArrow=none;html=1;rounded=0;" parent="1" edge="1">
          <mxGeometry width="50" height="50" relative="1" as="geometry">
            <mxPoint x="200" y="220" as="sourcePoint" />
            <mxPoint x="200" y="80" as="targetPoint" />
          </mxGeometry>
        </mxCell>
        <mxCell id="wifZ-9k00RwjJwxD-yln-9" value="" style="endArrow=none;html=1;rounded=0;" parent="1" edge="1">
          <mxGeometry width="50" height="50" relative="1" as="geometry">
            <mxPoint x="400" y="220" as="sourcePoint" />
            <mxPoint x="400" y="80" as="targetPoint" />
          </mxGeometry>
        </mxCell>
        <mxCell id="wifZ-9k00RwjJwxD-yln-10" value="" style="endArrow=none;html=1;rounded=0;" parent="1" edge="1">
          <mxGeometry width="50" height="50" relative="1" as="geometry">
            <mxPoint x="600" y="220" as="sourcePoint" />
            <mxPoint x="600" y="80" as="targetPoint" />
          </mxGeometry>
        </mxCell>
        <mxCell id="wifZ-9k00RwjJwxD-yln-11" value="Front-end" style="text;html=1;align=center;verticalAlign=middle;whiteSpace=wrap;rounded=0;" parent="1" vertex="1">
          <mxGeometry x="170" y="40" width="60" height="30" as="geometry" />
        </mxCell>
        <mxCell id="wifZ-9k00RwjJwxD-yln-12" value="Back-end" style="text;html=1;align=center;verticalAlign=middle;whiteSpace=wrap;rounded=0;" parent="1" vertex="1">
          <mxGeometry x="370" y="40" width="60" height="30" as="geometry" />
        </mxCell>
        <mxCell id="wifZ-9k00RwjJwxD-yln-13" value="BDD" style="text;html=1;align=center;verticalAlign=middle;whiteSpace=wrap;rounded=0;" parent="1" vertex="1">
          <mxGeometry x="570" y="40" width="60" height="30" as="geometry" />
        </mxCell>
        <mxCell id="wifZ-9k00RwjJwxD-yln-16" value="crée un compte" style="text;html=1;align=center;verticalAlign=middle;whiteSpace=wrap;rounded=0;fontSize=10;" parent="1" vertex="1">
          <mxGeometry x="70" y="92.5" width="100" height="10" as="geometry" />
        </mxCell>
        <mxCell id="wifZ-9k00RwjJwxD-yln-17" value="" style="endArrow=classic;html=1;rounded=0;" parent="1" edge="1">
          <mxGeometry width="50" height="50" relative="1" as="geometry">
            <mxPoint x="200" y="120" as="sourcePoint" />
            <mxPoint x="400" y="120" as="targetPoint" />
          </mxGeometry>
        </mxCell>
        <mxCell id="wifZ-9k00RwjJwxD-yln-18" value="envoi des informations personnelles" style="text;html=1;align=center;verticalAlign=middle;whiteSpace=wrap;rounded=0;fontSize=10;" parent="1" vertex="1">
          <mxGeometry x="220" y="102.5" width="170" height="15" as="geometry" />
        </mxCell>
        <mxCell id="wifZ-9k00RwjJwxD-yln-20" value="" style="endArrow=classic;html=1;rounded=0;" parent="1" edge="1">
          <mxGeometry width="50" height="50" relative="1" as="geometry">
            <mxPoint x="400" y="130" as="sourcePoint" />
            <mxPoint x="600" y="130" as="targetPoint" />
          </mxGeometry>
        </mxCell>
        <mxCell id="wifZ-9k00RwjJwxD-yln-21" value="vérification des données" style="text;html=1;align=center;verticalAlign=middle;whiteSpace=wrap;rounded=0;fontSize=10;" parent="1" vertex="1">
          <mxGeometry x="414" y="110" width="170" height="15" as="geometry" />
        </mxCell>
        <mxCell id="wifZ-9k00RwjJwxD-yln-22" value="création du compte" style="text;html=1;align=center;verticalAlign=middle;whiteSpace=wrap;rounded=0;fontSize=10;fillColor=#d5e8d4;strokeColor=#82b366;" parent="1" vertex="1">
          <mxGeometry x="420" y="140" width="170" height="15" as="geometry" />
        </mxCell>
        <mxCell id="wifZ-9k00RwjJwxD-yln-23" value="" style="endArrow=classic;html=1;rounded=0;" parent="1" edge="1">
          <mxGeometry width="50" height="50" relative="1" as="geometry">
            <mxPoint x="599" y="160" as="sourcePoint" />
            <mxPoint x="399" y="160" as="targetPoint" />
          </mxGeometry>
        </mxCell>
        <mxCell id="wifZ-9k00RwjJwxD-yln-25" value="confirmation de la création du compte" style="text;html=1;align=center;verticalAlign=middle;whiteSpace=wrap;rounded=0;fontSize=10;fillColor=#d5e8d4;strokeColor=#82b366;" parent="1" vertex="1">
          <mxGeometry x="221" y="150" width="170" height="15" as="geometry" />
        </mxCell>
        <mxCell id="wifZ-9k00RwjJwxD-yln-26" value="" style="endArrow=classic;html=1;rounded=0;" parent="1" edge="1">
          <mxGeometry width="50" height="50" relative="1" as="geometry">
            <mxPoint x="400" y="170" as="sourcePoint" />
            <mxPoint x="200" y="170" as="targetPoint" />
          </mxGeometry>
        </mxCell>
        <mxCell id="wifZ-9k00RwjJwxD-yln-27" value="message d&#39;erreur" style="text;html=1;align=center;verticalAlign=middle;whiteSpace=wrap;rounded=0;fontSize=10;fillColor=#f8cecc;strokeColor=#b85450;" parent="1" vertex="1">
          <mxGeometry x="221" y="190" width="170" height="15" as="geometry" />
        </mxCell>
        <mxCell id="wifZ-9k00RwjJwxD-yln-28" value="" style="endArrow=classic;html=1;rounded=0;" parent="1" edge="1">
          <mxGeometry width="50" height="50" relative="1" as="geometry">
            <mxPoint x="401.5" y="210" as="sourcePoint" />
            <mxPoint x="201.5" y="210" as="targetPoint" />
          </mxGeometry>
        </mxCell>
        <mxCell id="wifZ-9k00RwjJwxD-yln-29" value="Se connecter" style="text;html=1;align=center;verticalAlign=middle;whiteSpace=wrap;rounded=0;fontStyle=4" parent="1" vertex="1">
          <mxGeometry y="220" width="90" height="30" as="geometry" />
        </mxCell>
        <mxCell id="wifZ-9k00RwjJwxD-yln-30" style="edgeStyle=orthogonalEdgeStyle;rounded=0;orthogonalLoop=1;jettySize=auto;html=1;" parent="1" source="wifZ-9k00RwjJwxD-yln-31" edge="1">
          <mxGeometry relative="1" as="geometry">
            <mxPoint x="200" y="310" as="targetPoint" />
          </mxGeometry>
        </mxCell>
        <mxCell id="wifZ-9k00RwjJwxD-yln-31" value="Visiteur" style="shape=umlActor;verticalLabelPosition=bottom;verticalAlign=top;html=1;outlineConnect=0;" parent="1" vertex="1">
          <mxGeometry x="20" y="280" width="30" height="60" as="geometry" />
        </mxCell>
        <mxCell id="wifZ-9k00RwjJwxD-yln-32" value="" style="endArrow=none;html=1;rounded=0;" parent="1" edge="1">
          <mxGeometry width="50" height="50" relative="1" as="geometry">
            <mxPoint x="200" y="480" as="sourcePoint" />
            <mxPoint x="200" y="280" as="targetPoint" />
          </mxGeometry>
        </mxCell>
        <mxCell id="wifZ-9k00RwjJwxD-yln-33" value="" style="endArrow=none;html=1;rounded=0;" parent="1" edge="1">
          <mxGeometry width="50" height="50" relative="1" as="geometry">
            <mxPoint x="400" y="480" as="sourcePoint" />
            <mxPoint x="400" y="280" as="targetPoint" />
          </mxGeometry>
        </mxCell>
        <mxCell id="wifZ-9k00RwjJwxD-yln-34" value="" style="endArrow=none;html=1;rounded=0;" parent="1" edge="1">
          <mxGeometry width="50" height="50" relative="1" as="geometry">
            <mxPoint x="600" y="420" as="sourcePoint" />
            <mxPoint x="600" y="280" as="targetPoint" />
          </mxGeometry>
        </mxCell>
        <mxCell id="wifZ-9k00RwjJwxD-yln-35" value="Front-end" style="text;html=1;align=center;verticalAlign=middle;whiteSpace=wrap;rounded=0;" parent="1" vertex="1">
          <mxGeometry x="170" y="240" width="60" height="30" as="geometry" />
        </mxCell>
        <mxCell id="wifZ-9k00RwjJwxD-yln-36" value="Back-end" style="text;html=1;align=center;verticalAlign=middle;whiteSpace=wrap;rounded=0;" parent="1" vertex="1">
          <mxGeometry x="370" y="240" width="60" height="30" as="geometry" />
        </mxCell>
        <mxCell id="wifZ-9k00RwjJwxD-yln-37" value="BDD" style="text;html=1;align=center;verticalAlign=middle;whiteSpace=wrap;rounded=0;" parent="1" vertex="1">
          <mxGeometry x="570" y="240" width="60" height="30" as="geometry" />
        </mxCell>
        <mxCell id="wifZ-9k00RwjJwxD-yln-38" value="se connecte" style="text;html=1;align=center;verticalAlign=middle;whiteSpace=wrap;rounded=0;fontSize=10;" parent="1" vertex="1">
          <mxGeometry x="70" y="292.5" width="100" height="10" as="geometry" />
        </mxCell>
        <mxCell id="wifZ-9k00RwjJwxD-yln-39" value="" style="endArrow=classic;html=1;rounded=0;" parent="1" edge="1">
          <mxGeometry width="50" height="50" relative="1" as="geometry">
            <mxPoint x="200" y="320" as="sourcePoint" />
            <mxPoint x="400" y="320" as="targetPoint" />
          </mxGeometry>
        </mxCell>
        <mxCell id="wifZ-9k00RwjJwxD-yln-40" value="envoi des informations de connexion" style="text;html=1;align=center;verticalAlign=middle;whiteSpace=wrap;rounded=0;fontSize=10;" parent="1" vertex="1">
          <mxGeometry x="220" y="302.5" width="170" height="15" as="geometry" />
        </mxCell>
        <mxCell id="wifZ-9k00RwjJwxD-yln-41" value="" style="endArrow=classic;html=1;rounded=0;" parent="1" edge="1">
          <mxGeometry width="50" height="50" relative="1" as="geometry">
            <mxPoint x="400" y="330" as="sourcePoint" />
            <mxPoint x="600" y="330" as="targetPoint" />
          </mxGeometry>
        </mxCell>
        <mxCell id="wifZ-9k00RwjJwxD-yln-42" value="vérification des données" style="text;html=1;align=center;verticalAlign=middle;whiteSpace=wrap;rounded=0;fontSize=10;" parent="1" vertex="1">
          <mxGeometry x="414" y="310" width="170" height="15" as="geometry" />
        </mxCell>
        <mxCell id="wifZ-9k00RwjJwxD-yln-43" value="création d&#39;un token" style="text;html=1;align=center;verticalAlign=middle;whiteSpace=wrap;rounded=0;fontSize=10;fillColor=#d5e8d4;strokeColor=#82b366;" parent="1" vertex="1">
          <mxGeometry x="420" y="340" width="170" height="15" as="geometry" />
        </mxCell>
        <mxCell id="wifZ-9k00RwjJwxD-yln-44" value="" style="endArrow=classic;html=1;rounded=0;" parent="1" edge="1">
          <mxGeometry width="50" height="50" relative="1" as="geometry">
            <mxPoint x="599" y="360" as="sourcePoint" />
            <mxPoint x="399" y="360" as="targetPoint" />
          </mxGeometry>
        </mxCell>
        <mxCell id="wifZ-9k00RwjJwxD-yln-45" value="confirmation de connexion" style="text;html=1;align=center;verticalAlign=middle;whiteSpace=wrap;rounded=0;fontSize=10;fillColor=#d5e8d4;strokeColor=#82b366;" parent="1" vertex="1">
          <mxGeometry x="221" y="350" width="170" height="15" as="geometry" />
        </mxCell>
        <mxCell id="wifZ-9k00RwjJwxD-yln-46" value="" style="endArrow=classic;html=1;rounded=0;" parent="1" edge="1">
          <mxGeometry width="50" height="50" relative="1" as="geometry">
            <mxPoint x="400" y="370" as="sourcePoint" />
            <mxPoint x="200" y="370" as="targetPoint" />
          </mxGeometry>
        </mxCell>
        <mxCell id="wifZ-9k00RwjJwxD-yln-47" value="message d&#39;erreur" style="text;html=1;align=center;verticalAlign=middle;whiteSpace=wrap;rounded=0;fontSize=10;fillColor=#f8cecc;strokeColor=#b85450;" parent="1" vertex="1">
          <mxGeometry x="210" y="443" width="179" height="15" as="geometry" />
        </mxCell>
        <mxCell id="wifZ-9k00RwjJwxD-yln-48" value="" style="endArrow=classic;html=1;rounded=0;" parent="1" edge="1">
          <mxGeometry width="50" height="50" relative="1" as="geometry">
            <mxPoint x="399.5" y="465" as="sourcePoint" />
            <mxPoint x="199.5" y="465" as="targetPoint" />
          </mxGeometry>
        </mxCell>
        <mxCell id="wifZ-9k00RwjJwxD-yln-49" value="Réserver une séance" style="text;html=1;align=center;verticalAlign=middle;whiteSpace=wrap;rounded=0;fontStyle=4" parent="1" vertex="1">
          <mxGeometry y="482" width="130" height="30" as="geometry" />
        </mxCell>
        <mxCell id="wifZ-9k00RwjJwxD-yln-50" style="edgeStyle=orthogonalEdgeStyle;rounded=0;orthogonalLoop=1;jettySize=auto;html=1;" parent="1" source="wifZ-9k00RwjJwxD-yln-51" edge="1">
          <mxGeometry relative="1" as="geometry">
            <mxPoint x="200" y="564" as="targetPoint" />
          </mxGeometry>
        </mxCell>
        <mxCell id="wifZ-9k00RwjJwxD-yln-51" value="Visiteur" style="shape=umlActor;verticalLabelPosition=bottom;verticalAlign=top;html=1;outlineConnect=0;" parent="1" vertex="1">
          <mxGeometry x="20" y="534" width="30" height="60" as="geometry" />
        </mxCell>
        <mxCell id="wifZ-9k00RwjJwxD-yln-52" value="" style="endArrow=none;html=1;rounded=0;" parent="1" edge="1">
          <mxGeometry width="50" height="50" relative="1" as="geometry">
            <mxPoint x="200" y="854" as="sourcePoint" />
            <mxPoint x="200" y="534" as="targetPoint" />
          </mxGeometry>
        </mxCell>
        <mxCell id="wifZ-9k00RwjJwxD-yln-53" value="" style="endArrow=none;html=1;rounded=0;" parent="1" edge="1">
          <mxGeometry width="50" height="50" relative="1" as="geometry">
            <mxPoint x="400" y="854" as="sourcePoint" />
            <mxPoint x="400" y="534" as="targetPoint" />
          </mxGeometry>
        </mxCell>
        <mxCell id="wifZ-9k00RwjJwxD-yln-54" value="" style="endArrow=none;html=1;rounded=0;" parent="1" edge="1">
          <mxGeometry width="50" height="50" relative="1" as="geometry">
            <mxPoint x="600" y="854" as="sourcePoint" />
            <mxPoint x="600" y="534" as="targetPoint" />
          </mxGeometry>
        </mxCell>
        <mxCell id="wifZ-9k00RwjJwxD-yln-55" value="Front-end" style="text;html=1;align=center;verticalAlign=middle;whiteSpace=wrap;rounded=0;" parent="1" vertex="1">
          <mxGeometry x="170" y="494" width="60" height="30" as="geometry" />
        </mxCell>
        <mxCell id="wifZ-9k00RwjJwxD-yln-56" value="Back-end" style="text;html=1;align=center;verticalAlign=middle;whiteSpace=wrap;rounded=0;" parent="1" vertex="1">
          <mxGeometry x="370" y="494" width="60" height="30" as="geometry" />
        </mxCell>
        <mxCell id="wifZ-9k00RwjJwxD-yln-57" value="BDD" style="text;html=1;align=center;verticalAlign=middle;whiteSpace=wrap;rounded=0;" parent="1" vertex="1">
          <mxGeometry x="570" y="494" width="60" height="30" as="geometry" />
        </mxCell>
        <mxCell id="wifZ-9k00RwjJwxD-yln-58" value="choisit un cinéma" style="text;html=1;align=center;verticalAlign=middle;whiteSpace=wrap;rounded=0;fontSize=10;" parent="1" vertex="1">
          <mxGeometry x="70" y="546.5" width="100" height="10" as="geometry" />
        </mxCell>
        <mxCell id="wifZ-9k00RwjJwxD-yln-59" value="" style="endArrow=classic;html=1;rounded=0;" parent="1" edge="1">
          <mxGeometry width="50" height="50" relative="1" as="geometry">
            <mxPoint x="200" y="574" as="sourcePoint" />
            <mxPoint x="400" y="574" as="targetPoint" />
          </mxGeometry>
        </mxCell>
        <mxCell id="wifZ-9k00RwjJwxD-yln-60" value="GET des films" style="text;html=1;align=center;verticalAlign=middle;whiteSpace=wrap;rounded=0;fontSize=10;" parent="1" vertex="1">
          <mxGeometry x="220" y="556.5" width="170" height="15" as="geometry" />
        </mxCell>
        <mxCell id="wifZ-9k00RwjJwxD-yln-61" value="" style="endArrow=classic;html=1;rounded=0;" parent="1" edge="1">
          <mxGeometry width="50" height="50" relative="1" as="geometry">
            <mxPoint x="400" y="584" as="sourcePoint" />
            <mxPoint x="600" y="584" as="targetPoint" />
          </mxGeometry>
        </mxCell>
        <mxCell id="wifZ-9k00RwjJwxD-yln-62" value="vérification des données" style="text;html=1;align=center;verticalAlign=middle;whiteSpace=wrap;rounded=0;fontSize=10;" parent="1" vertex="1">
          <mxGeometry x="414" y="564" width="170" height="15" as="geometry" />
        </mxCell>
        <mxCell id="wifZ-9k00RwjJwxD-yln-63" value="envoi des données" style="text;html=1;align=center;verticalAlign=middle;whiteSpace=wrap;rounded=0;fontSize=10;fillColor=#d5e8d4;strokeColor=#82b366;" parent="1" vertex="1">
          <mxGeometry x="420" y="594" width="170" height="15" as="geometry" />
        </mxCell>
        <mxCell id="wifZ-9k00RwjJwxD-yln-64" value="" style="endArrow=classic;html=1;rounded=0;" parent="1" edge="1">
          <mxGeometry width="50" height="50" relative="1" as="geometry">
            <mxPoint x="599" y="614" as="sourcePoint" />
            <mxPoint x="399" y="614" as="targetPoint" />
          </mxGeometry>
        </mxCell>
        <mxCell id="wifZ-9k00RwjJwxD-yln-65" value="affiche la liste des films" style="text;html=1;align=center;verticalAlign=middle;whiteSpace=wrap;rounded=0;fontSize=10;fillColor=#d5e8d4;strokeColor=#82b366;" parent="1" vertex="1">
          <mxGeometry x="221" y="604" width="170" height="15" as="geometry" />
        </mxCell>
        <mxCell id="wifZ-9k00RwjJwxD-yln-66" value="" style="endArrow=classic;html=1;rounded=0;" parent="1" edge="1">
          <mxGeometry width="50" height="50" relative="1" as="geometry">
            <mxPoint x="400" y="624" as="sourcePoint" />
            <mxPoint x="200" y="624" as="targetPoint" />
          </mxGeometry>
        </mxCell>
        <mxCell id="wifZ-9k00RwjJwxD-yln-69" style="edgeStyle=orthogonalEdgeStyle;rounded=0;orthogonalLoop=1;jettySize=auto;html=1;" parent="1" edge="1">
          <mxGeometry relative="1" as="geometry">
            <mxPoint x="200" y="636.5" as="targetPoint" />
            <mxPoint x="50" y="636.5" as="sourcePoint" />
          </mxGeometry>
        </mxCell>
        <mxCell id="wifZ-9k00RwjJwxD-yln-70" value="choisit un film et un nombre de places" style="text;html=1;align=center;verticalAlign=middle;whiteSpace=wrap;rounded=0;fontSize=10;" parent="1" vertex="1">
          <mxGeometry x="70" y="619" width="100" height="10" as="geometry" />
        </mxCell>
        <mxCell id="wifZ-9k00RwjJwxD-yln-71" value="" style="endArrow=classic;html=1;rounded=0;" parent="1" edge="1">
          <mxGeometry width="50" height="50" relative="1" as="geometry">
            <mxPoint x="201.5" y="651.5" as="sourcePoint" />
            <mxPoint x="401.5" y="651.5" as="targetPoint" />
          </mxGeometry>
        </mxCell>
        <mxCell id="wifZ-9k00RwjJwxD-yln-72" value="GET des séances du film" style="text;html=1;align=center;verticalAlign=middle;whiteSpace=wrap;rounded=0;fontSize=10;" parent="1" vertex="1">
          <mxGeometry x="221.5" y="634" width="170" height="15" as="geometry" />
        </mxCell>
        <mxCell id="wifZ-9k00RwjJwxD-yln-73" value="" style="endArrow=classic;html=1;rounded=0;" parent="1" edge="1">
          <mxGeometry width="50" height="50" relative="1" as="geometry">
            <mxPoint x="399.5" y="664" as="sourcePoint" />
            <mxPoint x="599.5" y="664" as="targetPoint" />
          </mxGeometry>
        </mxCell>
        <mxCell id="wifZ-9k00RwjJwxD-yln-74" value="vérification des données" style="text;html=1;align=center;verticalAlign=middle;whiteSpace=wrap;rounded=0;fontSize=10;" parent="1" vertex="1">
          <mxGeometry x="413.5" y="644" width="170" height="15" as="geometry" />
        </mxCell>
        <mxCell id="wifZ-9k00RwjJwxD-yln-75" value="envoi des données" style="text;html=1;align=center;verticalAlign=middle;whiteSpace=wrap;rounded=0;fontSize=10;fillColor=#d5e8d4;strokeColor=#82b366;" parent="1" vertex="1">
          <mxGeometry x="419.5" y="674" width="170" height="15" as="geometry" />
        </mxCell>
        <mxCell id="wifZ-9k00RwjJwxD-yln-76" value="" style="endArrow=classic;html=1;rounded=0;" parent="1" edge="1">
          <mxGeometry width="50" height="50" relative="1" as="geometry">
            <mxPoint x="598.5" y="694" as="sourcePoint" />
            <mxPoint x="398.5" y="694" as="targetPoint" />
          </mxGeometry>
        </mxCell>
        <mxCell id="wifZ-9k00RwjJwxD-yln-80" value="affiche les séances du film" style="text;html=1;align=center;verticalAlign=middle;whiteSpace=wrap;rounded=0;fontSize=10;fillColor=#d5e8d4;strokeColor=#82b366;" parent="1" vertex="1">
          <mxGeometry x="222.5" y="684" width="170" height="15" as="geometry" />
        </mxCell>
        <mxCell id="wifZ-9k00RwjJwxD-yln-81" value="" style="endArrow=classic;html=1;rounded=0;" parent="1" edge="1">
          <mxGeometry width="50" height="50" relative="1" as="geometry">
            <mxPoint x="401.5" y="704" as="sourcePoint" />
            <mxPoint x="201.5" y="704" as="targetPoint" />
          </mxGeometry>
        </mxCell>
        <mxCell id="wifZ-9k00RwjJwxD-yln-82" style="edgeStyle=orthogonalEdgeStyle;rounded=0;orthogonalLoop=1;jettySize=auto;html=1;" parent="1" edge="1">
          <mxGeometry relative="1" as="geometry">
            <mxPoint x="200" y="716.5" as="targetPoint" />
            <mxPoint x="50" y="716.5" as="sourcePoint" />
          </mxGeometry>
        </mxCell>
        <mxCell id="wifZ-9k00RwjJwxD-yln-83" value="choisit la séance et le placement" style="text;html=1;align=center;verticalAlign=middle;whiteSpace=wrap;rounded=0;fontSize=10;" parent="1" vertex="1">
          <mxGeometry x="60" y="699" width="100" height="10" as="geometry" />
        </mxCell>
        <mxCell id="wifZ-9k00RwjJwxD-yln-85" value="" style="endArrow=classic;html=1;rounded=0;" parent="1" edge="1">
          <mxGeometry width="50" height="50" relative="1" as="geometry">
            <mxPoint x="201.5" y="731.5" as="sourcePoint" />
            <mxPoint x="401.5" y="731.5" as="targetPoint" />
          </mxGeometry>
        </mxCell>
        <mxCell id="wifZ-9k00RwjJwxD-yln-86" value="calcul du prix" style="text;html=1;align=center;verticalAlign=middle;whiteSpace=wrap;rounded=0;fontSize=10;" parent="1" vertex="1">
          <mxGeometry x="221.5" y="714" width="170" height="15" as="geometry" />
        </mxCell>
        <mxCell id="wifZ-9k00RwjJwxD-yln-87" value="" style="endArrow=classic;html=1;rounded=0;" parent="1" edge="1">
          <mxGeometry width="50" height="50" relative="1" as="geometry">
            <mxPoint x="401.5" y="764" as="sourcePoint" />
            <mxPoint x="201.5" y="764" as="targetPoint" />
          </mxGeometry>
        </mxCell>
        <mxCell id="wifZ-9k00RwjJwxD-yln-88" value="affiche le résumé de la réservation" style="text;html=1;align=center;verticalAlign=middle;whiteSpace=wrap;rounded=0;fontSize=10;" parent="1" vertex="1">
          <mxGeometry x="220" y="744" width="170" height="15" as="geometry" />
        </mxCell>
        <mxCell id="wifZ-9k00RwjJwxD-yln-89" style="edgeStyle=orthogonalEdgeStyle;rounded=0;orthogonalLoop=1;jettySize=auto;html=1;" parent="1" edge="1">
          <mxGeometry relative="1" as="geometry">
            <mxPoint x="200" y="776.5" as="targetPoint" />
            <mxPoint x="50" y="776.5" as="sourcePoint" />
          </mxGeometry>
        </mxCell>
        <mxCell id="wifZ-9k00RwjJwxD-yln-90" value="se connecte" style="text;html=1;align=center;verticalAlign=middle;whiteSpace=wrap;rounded=0;fontSize=10;" parent="1" vertex="1">
          <mxGeometry x="60" y="759" width="100" height="10" as="geometry" />
        </mxCell>
        <mxCell id="wifZ-9k00RwjJwxD-yln-94" style="edgeStyle=orthogonalEdgeStyle;rounded=0;orthogonalLoop=1;jettySize=auto;html=1;" parent="1" edge="1">
          <mxGeometry relative="1" as="geometry">
            <mxPoint x="200" y="796.5" as="targetPoint" />
            <mxPoint x="50" y="796.5" as="sourcePoint" />
          </mxGeometry>
        </mxCell>
        <mxCell id="wifZ-9k00RwjJwxD-yln-95" value="valide la réservation" style="text;html=1;align=center;verticalAlign=middle;whiteSpace=wrap;rounded=0;fontSize=10;" parent="1" vertex="1">
          <mxGeometry x="60" y="784" width="100" height="10" as="geometry" />
        </mxCell>
        <mxCell id="wifZ-9k00RwjJwxD-yln-97" value="" style="endArrow=classic;html=1;rounded=0;" parent="1" edge="1">
          <mxGeometry width="50" height="50" relative="1" as="geometry">
            <mxPoint x="201.5" y="811.5" as="sourcePoint" />
            <mxPoint x="401.5" y="811.5" as="targetPoint" />
          </mxGeometry>
        </mxCell>
        <mxCell id="wifZ-9k00RwjJwxD-yln-98" value="POST de la commande" style="text;html=1;align=center;verticalAlign=middle;whiteSpace=wrap;rounded=0;fontSize=10;" parent="1" vertex="1">
          <mxGeometry x="221.5" y="794" width="170" height="15" as="geometry" />
        </mxCell>
        <mxCell id="wifZ-9k00RwjJwxD-yln-99" value="" style="endArrow=classic;html=1;rounded=0;" parent="1" edge="1">
          <mxGeometry width="50" height="50" relative="1" as="geometry">
            <mxPoint x="399" y="824" as="sourcePoint" />
            <mxPoint x="599" y="824" as="targetPoint" />
          </mxGeometry>
        </mxCell>
        <mxCell id="wifZ-9k00RwjJwxD-yln-100" value="enregistrement de la commande" style="text;html=1;align=center;verticalAlign=middle;whiteSpace=wrap;rounded=0;fontSize=10;" parent="1" vertex="1">
          <mxGeometry x="413" y="804" width="170" height="15" as="geometry" />
        </mxCell>
        <mxCell id="wifZ-9k00RwjJwxD-yln-103" value="" style="endArrow=classic;html=1;rounded=0;" parent="1" edge="1">
          <mxGeometry width="50" height="50" relative="1" as="geometry">
            <mxPoint x="401.5" y="839" as="sourcePoint" />
            <mxPoint x="201.5" y="839" as="targetPoint" />
          </mxGeometry>
        </mxCell>
        <mxCell id="wifZ-9k00RwjJwxD-yln-104" value="envoi de mail de confirmation" style="text;html=1;align=center;verticalAlign=middle;whiteSpace=wrap;rounded=0;fontSize=10;fillColor=#d5e8d4;strokeColor=#82b366;" parent="1" vertex="1">
          <mxGeometry x="220" y="819" width="170" height="15" as="geometry" />
        </mxCell>
        <mxCell id="nucLkDcXrnHL7K70imRz-1" value="CRUD films et séances" style="text;html=1;align=center;verticalAlign=middle;whiteSpace=wrap;rounded=0;fontStyle=4" parent="1" vertex="1">
          <mxGeometry y="864" width="140" height="30" as="geometry" />
        </mxCell>
        <mxCell id="nucLkDcXrnHL7K70imRz-2" style="edgeStyle=orthogonalEdgeStyle;rounded=0;orthogonalLoop=1;jettySize=auto;html=1;" parent="1" source="nucLkDcXrnHL7K70imRz-3" edge="1">
          <mxGeometry relative="1" as="geometry">
            <mxPoint x="200" y="954" as="targetPoint" />
          </mxGeometry>
        </mxCell>
        <mxCell id="nucLkDcXrnHL7K70imRz-3" value="Employé" style="shape=umlActor;verticalLabelPosition=bottom;verticalAlign=top;html=1;outlineConnect=0;" parent="1" vertex="1">
          <mxGeometry x="20" y="924" width="30" height="60" as="geometry" />
        </mxCell>
        <mxCell id="nucLkDcXrnHL7K70imRz-4" value="" style="endArrow=none;html=1;rounded=0;" parent="1" edge="1">
          <mxGeometry width="50" height="50" relative="1" as="geometry">
            <mxPoint x="200" y="1094" as="sourcePoint" />
            <mxPoint x="200" y="924" as="targetPoint" />
          </mxGeometry>
        </mxCell>
        <mxCell id="nucLkDcXrnHL7K70imRz-5" value="" style="endArrow=none;html=1;rounded=0;" parent="1" edge="1">
          <mxGeometry width="50" height="50" relative="1" as="geometry">
            <mxPoint x="400" y="1094" as="sourcePoint" />
            <mxPoint x="400" y="924" as="targetPoint" />
          </mxGeometry>
        </mxCell>
        <mxCell id="nucLkDcXrnHL7K70imRz-6" value="" style="endArrow=none;html=1;rounded=0;" parent="1" edge="1">
          <mxGeometry width="50" height="50" relative="1" as="geometry">
            <mxPoint x="600" y="1094" as="sourcePoint" />
            <mxPoint x="600" y="924" as="targetPoint" />
          </mxGeometry>
        </mxCell>
        <mxCell id="nucLkDcXrnHL7K70imRz-7" value="Front-end" style="text;html=1;align=center;verticalAlign=middle;whiteSpace=wrap;rounded=0;" parent="1" vertex="1">
          <mxGeometry x="170" y="884" width="60" height="30" as="geometry" />
        </mxCell>
        <mxCell id="nucLkDcXrnHL7K70imRz-8" value="Back-end" style="text;html=1;align=center;verticalAlign=middle;whiteSpace=wrap;rounded=0;" parent="1" vertex="1">
          <mxGeometry x="370" y="884" width="60" height="30" as="geometry" />
        </mxCell>
        <mxCell id="nucLkDcXrnHL7K70imRz-9" value="BDD" style="text;html=1;align=center;verticalAlign=middle;whiteSpace=wrap;rounded=0;" parent="1" vertex="1">
          <mxGeometry x="570" y="884" width="60" height="30" as="geometry" />
        </mxCell>
        <mxCell id="nucLkDcXrnHL7K70imRz-10" value="se connecte" style="text;html=1;align=center;verticalAlign=middle;whiteSpace=wrap;rounded=0;fontSize=10;" parent="1" vertex="1">
          <mxGeometry x="70" y="936.5" width="100" height="10" as="geometry" />
        </mxCell>
        <mxCell id="nucLkDcXrnHL7K70imRz-11" value="" style="endArrow=classic;html=1;rounded=0;" parent="1" edge="1">
          <mxGeometry width="50" height="50" relative="1" as="geometry">
            <mxPoint x="201.5" y="991.5" as="sourcePoint" />
            <mxPoint x="401.5" y="991.5" as="targetPoint" />
          </mxGeometry>
        </mxCell>
        <mxCell id="nucLkDcXrnHL7K70imRz-12" value="POST données" style="text;html=1;align=center;verticalAlign=middle;whiteSpace=wrap;rounded=0;fontSize=10;" parent="1" vertex="1">
          <mxGeometry x="221.5" y="974" width="170" height="15" as="geometry" />
        </mxCell>
        <mxCell id="nucLkDcXrnHL7K70imRz-13" value="" style="endArrow=classic;html=1;rounded=0;" parent="1" edge="1">
          <mxGeometry width="50" height="50" relative="1" as="geometry">
            <mxPoint x="399" y="1004" as="sourcePoint" />
            <mxPoint x="599" y="1004" as="targetPoint" />
          </mxGeometry>
        </mxCell>
        <mxCell id="nucLkDcXrnHL7K70imRz-14" value="vérification des données" style="text;html=1;align=center;verticalAlign=middle;whiteSpace=wrap;rounded=0;fontSize=10;" parent="1" vertex="1">
          <mxGeometry x="413" y="984" width="170" height="15" as="geometry" />
        </mxCell>
        <mxCell id="nucLkDcXrnHL7K70imRz-19" style="edgeStyle=orthogonalEdgeStyle;rounded=0;orthogonalLoop=1;jettySize=auto;html=1;" parent="1" edge="1">
          <mxGeometry relative="1" as="geometry">
            <mxPoint x="200" y="979" as="targetPoint" />
            <mxPoint x="50" y="979" as="sourcePoint" />
          </mxGeometry>
        </mxCell>
        <mxCell id="nucLkDcXrnHL7K70imRz-20" value="ajoute un film/séance" style="text;html=1;align=center;verticalAlign=middle;whiteSpace=wrap;rounded=0;fontSize=10;" parent="1" vertex="1">
          <mxGeometry x="70" y="961.5" width="100" height="10" as="geometry" />
        </mxCell>
        <mxCell id="nucLkDcXrnHL7K70imRz-23" value="" style="endArrow=classic;html=1;rounded=0;" parent="1" edge="1">
          <mxGeometry width="50" height="50" relative="1" as="geometry">
            <mxPoint x="399" y="1054" as="sourcePoint" />
            <mxPoint x="599" y="1054" as="targetPoint" />
          </mxGeometry>
        </mxCell>
        <mxCell id="nucLkDcXrnHL7K70imRz-24" value="si film/séance existant : mise à jour des données" style="text;html=1;align=center;verticalAlign=middle;whiteSpace=wrap;rounded=0;fontSize=10;" parent="1" vertex="1">
          <mxGeometry x="413" y="1034" width="170" height="15" as="geometry" />
        </mxCell>
        <mxCell id="nucLkDcXrnHL7K70imRz-35" style="edgeStyle=orthogonalEdgeStyle;rounded=0;orthogonalLoop=1;jettySize=auto;html=1;" parent="1" edge="1">
          <mxGeometry relative="1" as="geometry">
            <mxPoint x="200" y="1061.5" as="targetPoint" />
            <mxPoint x="50" y="1061.5" as="sourcePoint" />
          </mxGeometry>
        </mxCell>
        <mxCell id="nucLkDcXrnHL7K70imRz-36" value="supprime un film/séance" style="text;html=1;align=center;verticalAlign=middle;whiteSpace=wrap;rounded=0;fontSize=10;" parent="1" vertex="1">
          <mxGeometry x="50" y="1044" width="130" height="10" as="geometry" />
        </mxCell>
        <mxCell id="nucLkDcXrnHL7K70imRz-41" value="" style="endArrow=classic;html=1;rounded=0;" parent="1" edge="1">
          <mxGeometry width="50" height="50" relative="1" as="geometry">
            <mxPoint x="399" y="1084" as="sourcePoint" />
            <mxPoint x="599" y="1084" as="targetPoint" />
          </mxGeometry>
        </mxCell>
        <mxCell id="nucLkDcXrnHL7K70imRz-42" value="suppression des données" style="text;html=1;align=center;verticalAlign=middle;whiteSpace=wrap;rounded=0;fontSize=10;" parent="1" vertex="1">
          <mxGeometry x="413" y="1064" width="170" height="15" as="geometry" />
        </mxCell>
        <mxCell id="nucLkDcXrnHL7K70imRz-51" value="" style="endArrow=classic;html=1;rounded=0;" parent="1" edge="1">
          <mxGeometry width="50" height="50" relative="1" as="geometry">
            <mxPoint x="399" y="1029" as="sourcePoint" />
            <mxPoint x="599" y="1029" as="targetPoint" />
          </mxGeometry>
        </mxCell>
        <mxCell id="nucLkDcXrnHL7K70imRz-52" value="si film/séance non existant : enregistrement des données" style="text;html=1;align=center;verticalAlign=middle;whiteSpace=wrap;rounded=0;fontSize=10;" parent="1" vertex="1">
          <mxGeometry x="413" y="1009" width="170" height="15" as="geometry" />
        </mxCell>
        <mxCell id="nucLkDcXrnHL7K70imRz-53" value="" style="endArrow=classic;html=1;rounded=0;" parent="1" edge="1">
          <mxGeometry width="50" height="50" relative="1" as="geometry">
            <mxPoint x="201.5" y="1071.5" as="sourcePoint" />
            <mxPoint x="401.5" y="1071.5" as="targetPoint" />
          </mxGeometry>
        </mxCell>
        <mxCell id="nucLkDcXrnHL7K70imRz-54" value="POST" style="text;html=1;align=center;verticalAlign=middle;whiteSpace=wrap;rounded=0;fontSize=10;" parent="1" vertex="1">
          <mxGeometry x="221.5" y="1054" width="170" height="15" as="geometry" />
        </mxCell>
        <mxCell id="nucLkDcXrnHL7K70imRz-55" value="Gestion des avis" style="text;html=1;align=center;verticalAlign=middle;whiteSpace=wrap;rounded=0;fontStyle=4" parent="1" vertex="1">
          <mxGeometry y="1114" width="110" height="30" as="geometry" />
        </mxCell>
        <mxCell id="nucLkDcXrnHL7K70imRz-56" style="edgeStyle=orthogonalEdgeStyle;rounded=0;orthogonalLoop=1;jettySize=auto;html=1;" parent="1" source="nucLkDcXrnHL7K70imRz-57" edge="1">
          <mxGeometry relative="1" as="geometry">
            <mxPoint x="200" y="1204" as="targetPoint" />
          </mxGeometry>
        </mxCell>
        <mxCell id="nucLkDcXrnHL7K70imRz-57" value="Visiteur" style="shape=umlActor;verticalLabelPosition=bottom;verticalAlign=top;html=1;outlineConnect=0;" parent="1" vertex="1">
          <mxGeometry x="20" y="1174" width="30" height="60" as="geometry" />
        </mxCell>
        <mxCell id="nucLkDcXrnHL7K70imRz-58" value="" style="endArrow=none;html=1;rounded=0;" parent="1" edge="1">
          <mxGeometry width="50" height="50" relative="1" as="geometry">
            <mxPoint x="200" y="1364" as="sourcePoint" />
            <mxPoint x="200" y="1174" as="targetPoint" />
          </mxGeometry>
        </mxCell>
        <mxCell id="nucLkDcXrnHL7K70imRz-59" value="" style="endArrow=none;html=1;rounded=0;" parent="1" edge="1">
          <mxGeometry width="50" height="50" relative="1" as="geometry">
            <mxPoint x="400" y="1364" as="sourcePoint" />
            <mxPoint x="400" y="1174" as="targetPoint" />
          </mxGeometry>
        </mxCell>
        <mxCell id="nucLkDcXrnHL7K70imRz-60" value="" style="endArrow=none;html=1;rounded=0;" parent="1" edge="1">
          <mxGeometry width="50" height="50" relative="1" as="geometry">
            <mxPoint x="600" y="1364" as="sourcePoint" />
            <mxPoint x="600" y="1174" as="targetPoint" />
          </mxGeometry>
        </mxCell>
        <mxCell id="nucLkDcXrnHL7K70imRz-61" value="Front-end" style="text;html=1;align=center;verticalAlign=middle;whiteSpace=wrap;rounded=0;" parent="1" vertex="1">
          <mxGeometry x="170" y="1134" width="60" height="30" as="geometry" />
        </mxCell>
        <mxCell id="nucLkDcXrnHL7K70imRz-62" value="Back-end" style="text;html=1;align=center;verticalAlign=middle;whiteSpace=wrap;rounded=0;" parent="1" vertex="1">
          <mxGeometry x="370" y="1134" width="60" height="30" as="geometry" />
        </mxCell>
        <mxCell id="nucLkDcXrnHL7K70imRz-63" value="BDD" style="text;html=1;align=center;verticalAlign=middle;whiteSpace=wrap;rounded=0;" parent="1" vertex="1">
          <mxGeometry x="570" y="1134" width="60" height="30" as="geometry" />
        </mxCell>
        <mxCell id="nucLkDcXrnHL7K70imRz-64" value="se connecte" style="text;html=1;align=center;verticalAlign=middle;whiteSpace=wrap;rounded=0;fontSize=10;" parent="1" vertex="1">
          <mxGeometry x="70" y="1186.5" width="100" height="10" as="geometry" />
        </mxCell>
        <mxCell id="nucLkDcXrnHL7K70imRz-69" style="edgeStyle=orthogonalEdgeStyle;rounded=0;orthogonalLoop=1;jettySize=auto;html=1;" parent="1" edge="1">
          <mxGeometry relative="1" as="geometry">
            <mxPoint x="200" y="1229" as="targetPoint" />
            <mxPoint x="50" y="1229" as="sourcePoint" />
          </mxGeometry>
        </mxCell>
        <mxCell id="nucLkDcXrnHL7K70imRz-70" value="visionne ses commandes" style="text;html=1;align=center;verticalAlign=middle;whiteSpace=wrap;rounded=0;fontSize=10;" parent="1" vertex="1">
          <mxGeometry x="70" y="1211.5" width="120" height="10" as="geometry" />
        </mxCell>
        <mxCell id="nucLkDcXrnHL7K70imRz-73" style="edgeStyle=orthogonalEdgeStyle;rounded=0;orthogonalLoop=1;jettySize=auto;html=1;" parent="1" edge="1">
          <mxGeometry relative="1" as="geometry">
            <mxPoint x="200" y="1249" as="targetPoint" />
            <mxPoint x="50" y="1249" as="sourcePoint" />
          </mxGeometry>
        </mxCell>
        <mxCell id="nucLkDcXrnHL7K70imRz-74" value="choisit une séance" style="text;html=1;align=center;verticalAlign=middle;whiteSpace=wrap;rounded=0;fontSize=10;" parent="1" vertex="1">
          <mxGeometry x="55" y="1234" width="130" height="10" as="geometry" />
        </mxCell>
        <mxCell id="nucLkDcXrnHL7K70imRz-75" value="" style="endArrow=classic;html=1;rounded=0;" parent="1" edge="1">
          <mxGeometry width="50" height="50" relative="1" as="geometry">
            <mxPoint x="399" y="1344" as="sourcePoint" />
            <mxPoint x="599" y="1344" as="targetPoint" />
          </mxGeometry>
        </mxCell>
        <mxCell id="nucLkDcXrnHL7K70imRz-76" value="enregistrement de l&#39;avis" style="text;html=1;align=center;verticalAlign=middle;whiteSpace=wrap;rounded=0;fontSize=10;" parent="1" vertex="1">
          <mxGeometry x="413" y="1324" width="170" height="15" as="geometry" />
        </mxCell>
        <mxCell id="nucLkDcXrnHL7K70imRz-79" value="" style="endArrow=classic;html=1;rounded=0;" parent="1" edge="1">
          <mxGeometry width="50" height="50" relative="1" as="geometry">
            <mxPoint x="201.5" y="1337.41" as="sourcePoint" />
            <mxPoint x="401.5" y="1337.41" as="targetPoint" />
          </mxGeometry>
        </mxCell>
        <mxCell id="nucLkDcXrnHL7K70imRz-80" value="POST de l&#39;avis sur le film" style="text;html=1;align=center;verticalAlign=middle;whiteSpace=wrap;rounded=0;fontSize=10;" parent="1" vertex="1">
          <mxGeometry x="221.5" y="1319.91" width="170" height="15" as="geometry" />
        </mxCell>
        <mxCell id="nucLkDcXrnHL7K70imRz-82" value="" style="endArrow=classic;html=1;rounded=0;" parent="1" edge="1">
          <mxGeometry width="50" height="50" relative="1" as="geometry">
            <mxPoint x="200" y="1264" as="sourcePoint" />
            <mxPoint x="200" y="1284" as="targetPoint" />
            <Array as="points">
              <mxPoint x="220" y="1264" />
              <mxPoint x="230" y="1274" />
              <mxPoint x="220" y="1284" />
            </Array>
          </mxGeometry>
        </mxCell>
        <mxCell id="nucLkDcXrnHL7K70imRz-83" value="vérifie si séance passée" style="text;html=1;align=center;verticalAlign=middle;whiteSpace=wrap;rounded=0;fontSize=10;" parent="1" vertex="1">
          <mxGeometry x="230" y="1264" width="121" height="10" as="geometry" />
        </mxCell>
        <mxCell id="nucLkDcXrnHL7K70imRz-84" style="edgeStyle=orthogonalEdgeStyle;rounded=0;orthogonalLoop=1;jettySize=auto;html=1;" parent="1" edge="1">
          <mxGeometry relative="1" as="geometry">
            <mxPoint x="200" y="1289" as="targetPoint" />
            <mxPoint x="50" y="1289" as="sourcePoint" />
          </mxGeometry>
        </mxCell>
        <mxCell id="nucLkDcXrnHL7K70imRz-85" value="écrit un avis" style="text;html=1;align=center;verticalAlign=middle;whiteSpace=wrap;rounded=0;fontSize=10;" parent="1" vertex="1">
          <mxGeometry x="55" y="1274" width="130" height="10" as="geometry" />
        </mxCell>
        <mxCell id="nucLkDcXrnHL7K70imRz-86" value="Employé" style="shape=umlActor;verticalLabelPosition=bottom;verticalAlign=top;html=1;outlineConnect=0;" parent="1" vertex="1">
          <mxGeometry x="20" y="1299" width="30" height="60" as="geometry" />
        </mxCell>
        <mxCell id="nucLkDcXrnHL7K70imRz-88" style="edgeStyle=orthogonalEdgeStyle;rounded=0;orthogonalLoop=1;jettySize=auto;html=1;" parent="1" edge="1">
          <mxGeometry relative="1" as="geometry">
            <mxPoint x="200" y="1329" as="targetPoint" />
            <mxPoint x="50" y="1329" as="sourcePoint" />
          </mxGeometry>
        </mxCell>
        <mxCell id="nucLkDcXrnHL7K70imRz-89" value="valide l&#39;avis" style="text;html=1;align=center;verticalAlign=middle;whiteSpace=wrap;rounded=0;fontSize=10;" parent="1" vertex="1">
          <mxGeometry x="55" y="1314" width="130" height="10" as="geometry" />
        </mxCell>
        <mxCell id="nucLkDcXrnHL7K70imRz-90" style="edgeStyle=orthogonalEdgeStyle;rounded=0;orthogonalLoop=1;jettySize=auto;html=1;" parent="1" edge="1">
          <mxGeometry relative="1" as="geometry">
            <mxPoint x="200" y="1349.91" as="targetPoint" />
            <mxPoint x="50" y="1349.91" as="sourcePoint" />
          </mxGeometry>
        </mxCell>
        <mxCell id="nucLkDcXrnHL7K70imRz-91" value="ou supprime l&#39;avis" style="text;html=1;align=center;verticalAlign=middle;whiteSpace=wrap;rounded=0;fontSize=10;" parent="1" vertex="1">
          <mxGeometry x="55" y="1334.91" width="130" height="10" as="geometry" />
        </mxCell>
        <mxCell id="4GlCzzbNf7jcFsdkg0GC-1" value="" style="endArrow=classic;html=1;rounded=0;" edge="1" parent="1">
          <mxGeometry width="50" height="50" relative="1" as="geometry">
            <mxPoint x="200" y="180" as="sourcePoint" />
            <mxPoint x="50" y="180" as="targetPoint" />
          </mxGeometry>
        </mxCell>
        <mxCell id="4GlCzzbNf7jcFsdkg0GC-3" value="&lt;font style=&quot;font-size: 10px;&quot;&gt;navigue vers connexion&lt;/font&gt;" style="text;html=1;align=center;verticalAlign=middle;resizable=0;points=[];autosize=1;strokeColor=none;fillColor=none;" vertex="1" parent="1">
          <mxGeometry x="60" y="150" width="130" height="30" as="geometry" />
        </mxCell>
        <mxCell id="4GlCzzbNf7jcFsdkg0GC-4" value="erreur de validation" style="text;html=1;align=center;verticalAlign=middle;whiteSpace=wrap;rounded=0;fontSize=10;fillColor=#f8cecc;strokeColor=#b85450;" vertex="1" parent="1">
          <mxGeometry x="419.5" y="175" width="170" height="15" as="geometry" />
        </mxCell>
        <mxCell id="4GlCzzbNf7jcFsdkg0GC-5" value="" style="endArrow=classic;html=1;rounded=0;" edge="1" parent="1">
          <mxGeometry width="50" height="50" relative="1" as="geometry">
            <mxPoint x="599" y="195" as="sourcePoint" />
            <mxPoint x="399" y="195" as="targetPoint" />
          </mxGeometry>
        </mxCell>
        <mxCell id="4GlCzzbNf7jcFsdkg0GC-6" value="erreur de validation" style="text;html=1;align=center;verticalAlign=middle;whiteSpace=wrap;rounded=0;fontSize=10;fillColor=#f8cecc;strokeColor=#b85450;" vertex="1" parent="1">
          <mxGeometry x="419.5" y="365" width="170" height="15" as="geometry" />
        </mxCell>
        <mxCell id="4GlCzzbNf7jcFsdkg0GC-7" value="" style="endArrow=classic;html=1;rounded=0;" edge="1" parent="1">
          <mxGeometry width="50" height="50" relative="1" as="geometry">
            <mxPoint x="599" y="387.15999999999997" as="sourcePoint" />
            <mxPoint x="399" y="387.15999999999997" as="targetPoint" />
          </mxGeometry>
        </mxCell>
        <mxCell id="4GlCzzbNf7jcFsdkg0GC-8" value="&lt;font style=&quot;font-size: 10px;&quot;&gt;si &quot;user&quot; : navigue vers compte&lt;/font&gt;" style="text;html=1;align=center;verticalAlign=middle;resizable=0;points=[];autosize=1;strokeColor=none;fillColor=none;" vertex="1" parent="1">
          <mxGeometry x="50" y="350" width="160" height="30" as="geometry" />
        </mxCell>
        <mxCell id="4GlCzzbNf7jcFsdkg0GC-9" value="" style="endArrow=classic;html=1;rounded=0;" edge="1" parent="1">
          <mxGeometry width="50" height="50" relative="1" as="geometry">
            <mxPoint x="200" y="375" as="sourcePoint" />
            <mxPoint x="50" y="375" as="targetPoint" />
          </mxGeometry>
        </mxCell>
        <mxCell id="4GlCzzbNf7jcFsdkg0GC-11" value="&lt;font style=&quot;font-size: 10px;&quot;&gt;si &quot;employee&quot; : navigue vers&lt;/font&gt;&lt;div&gt;&lt;font style=&quot;font-size: 10px;&quot;&gt;espace employé&lt;/font&gt;&lt;/div&gt;" style="text;html=1;align=center;verticalAlign=middle;resizable=0;points=[];autosize=1;strokeColor=none;fillColor=none;" vertex="1" parent="1">
          <mxGeometry x="50" y="372.5" width="150" height="40" as="geometry" />
        </mxCell>
        <mxCell id="4GlCzzbNf7jcFsdkg0GC-12" value="&lt;font style=&quot;font-size: 10px;&quot;&gt;si &quot;admin&quot; : navigue vers&lt;/font&gt;&lt;div&gt;&lt;font style=&quot;font-size: 10px;&quot;&gt;espace administrateur&lt;/font&gt;&lt;/div&gt;" style="text;html=1;align=center;verticalAlign=middle;resizable=0;points=[];autosize=1;strokeColor=none;fillColor=none;" vertex="1" parent="1">
          <mxGeometry x="60" y="403" width="130" height="40" as="geometry" />
        </mxCell>
        <mxCell id="4GlCzzbNf7jcFsdkg0GC-13" value="" style="endArrow=classic;html=1;rounded=0;" edge="1" parent="1">
          <mxGeometry width="50" height="50" relative="1" as="geometry">
            <mxPoint x="200" y="407" as="sourcePoint" />
            <mxPoint x="50" y="407" as="targetPoint" />
          </mxGeometry>
        </mxCell>
        <mxCell id="4GlCzzbNf7jcFsdkg0GC-14" value="" style="endArrow=classic;html=1;rounded=0;" edge="1" parent="1">
          <mxGeometry width="50" height="50" relative="1" as="geometry">
            <mxPoint x="200" y="440" as="sourcePoint" />
            <mxPoint x="50" y="440" as="targetPoint" />
          </mxGeometry>
        </mxCell>
      </root>
    </mxGraphModel>
  </diagram>
</mxfile>
